HIERARCHY
ROOT Hips
{
	OFFSET 0.000000 0.000000 0.000000
	CHANNELS 6 Xposition Yposition Zposition Zrotation Yrotation Xrotation 
	JOINT LHipJoint
	{
		OFFSET 0.000000 0.000000 0.000000
		CHANNELS 3 Zrotation Yrotation Xrotation
		JOINT LeftUpLeg
		{
			OFFSET 1.363060 -1.794630 0.839290
			CHANNELS 3 Zrotation Yrotation Xrotation
			JOINT LeftLeg
			{
				OFFSET 2.448110 -6.726130 0.000000
				CHANNELS 3 Zrotation Yrotation Xrotation
				JOINT LeftFoot
				{
					OFFSET 2.562200 -7.039590 0.000000
					CHANNELS 3 Zrotation Yrotation Xrotation
					JOINT LeftToeBase
					{
						OFFSET 0.157640 -0.433110 2.322550
						CHANNELS 3 Zrotation Yrotation Xrotation
						End Site
						{
							OFFSET 0.000000 0.000000 0.000000
						}
					}
				}
			}
		}
	}
	JOINT RHipJoint
	{
		OFFSET 0.000000 0.000000 0.000000
		CHANNELS 3 Zrotation Yrotation Xrotation
		JOINT RightUpLeg
		{
			OFFSET -1.305520 -1.794630 0.839290
			CHANNELS 3 Zrotation Yrotation Xrotation
			JOINT RightLeg
			{
				OFFSET -2.542530 -6.985550 0.000000
				CHANNELS 3 Zrotation Yrotation Xrotation
				JOINT RightFoot
				{
					OFFSET -2.568260 -7.056230 0.000000
					CHANNELS 3 Zrotation Yrotation Xrotation
					JOINT RightToeBase
					{
						OFFSET -0.164730 -0.452590 2.363150
						CHANNELS 3 Zrotation Yrotation Xrotation
						End Site
						{
							OFFSET 0.000000 0.000000 0.000000
						}
					}
				}
			}
		}
	}
	JOINT LowerBack
	{
		OFFSET 0.000000 0.000000 0.000000
		CHANNELS 3 Zrotation Yrotation Xrotation
		JOINT Spine
		{
			OFFSET 0.028270 2.035590 -0.193380
			CHANNELS 3 Zrotation Yrotation Xrotation
			JOINT Spine1
			{
				OFFSET 0.056720 2.048850 -0.042750
				CHANNELS 3 Zrotation Yrotation Xrotation
				JOINT Neck
				{
					OFFSET 0.000000 0.000000 0.000000
					CHANNELS 3 Zrotation Yrotation Xrotation
					JOINT Neck1
					{
						OFFSET -0.054170 1.746240 0.172020
						CHANNELS 3 Zrotation Yrotation Xrotation
						JOINT Head
						{
							OFFSET 0.104070 1.761360 -0.123970
							CHANNELS 3 Zrotation Yrotation Xrotation
							End Site
							{
								OFFSET 0.000000 0.000000 0.000000
							}
						}
					}
				}
				JOINT LeftShoulder
				{
					OFFSET 0.000000 0.000000 0.000000
					CHANNELS 3 Zrotation Yrotation Xrotation
					JOINT LeftArm
					{
						OFFSET 3.362410 1.200890 -0.311210
						CHANNELS 3 Zrotation Yrotation Xrotation
						JOINT LeftForeArm
						{
							OFFSET 4.983000 -0.000000 -0.000000
							CHANNELS 3 Zrotation Yrotation Xrotation
							JOINT LeftHand
							{
								OFFSET 3.483560 -0.000000 -0.000000
								CHANNELS 3 Zrotation Yrotation Xrotation
								JOINT LeftFingerBase
								{
									OFFSET 0.000000 0.000000 0.000000
									CHANNELS 3 Zrotation Yrotation Xrotation
									JOINT LeftHandIndex1
									{
										OFFSET 0.715260 -0.000000 -0.000000
										CHANNELS 3 Zrotation Yrotation Xrotation
										End Site
										{
											OFFSET 0.000000 0.000000 0.000000
										}
									}
								}
								JOINT LThumb
								{
									OFFSET 0.000000 0.000000 0.000000
									CHANNELS 3 Zrotation Yrotation Xrotation
									End Site
									{
										OFFSET 0.000000 0.000000 0.000000
									}
								}
							}
						}
					}
				}
				JOINT RightShoulder
				{
					OFFSET 0.000000 0.000000 0.000000
					CHANNELS 3 Zrotation Yrotation Xrotation
					JOINT RightArm
					{
						OFFSET -3.136600 1.374050 -0.404650
						CHANNELS 3 Zrotation Yrotation Xrotation
						JOINT RightForeArm
						{
							OFFSET -5.241900 -0.000000 -0.000000
							CHANNELS 3 Zrotation Yrotation Xrotation
							JOINT RightHand
							{
								OFFSET -3.444170 -0.000000 -0.000000
								CHANNELS 3 Zrotation Yrotation Xrotation
								JOINT RightFingerBase
								{
									OFFSET 0.000000 0.000000 0.000000
									CHANNELS 3 Zrotation Yrotation Xrotation
									JOINT RightHandIndex1
									{
										OFFSET -0.622530 -0.000000 -0.000000
										CHANNELS 3 Zrotation Yrotation Xrotation
										End Site
										{
											OFFSET 0.000000 0.000000 0.000000
										}
									}
								}
								JOINT RThumb
								{
									OFFSET 0.000000 0.000000 0.000000
									CHANNELS 3 Zrotation Yrotation Xrotation
									End Site
									{
										OFFSET 0.000000 0.000000 0.000000
									}
								}
							}
						}
					}
				}
			}
		}
	}
}
MOTION
Frames: 7
Frame Time: 0.008333
-0.151717 17.260176 -0.683111 176.842690 -86.265827 -163.863702 -11.156456 2.004668 2.277550 -5.781975 15.359882 -18.150218 -3.025046 -1.779114 0.185836 0.395003 1.197777 -6.584395 -179.995000 -0.000000 -96.232800 8.964362 -2.244847 3.443979 7.713251 -2.622426 -18.673746 2.459294 0.932136 8.283813 -1.238988 -6.099894 -2.921453 -1.159099 0.000000 -62.175400 0.854213 -1.095327 -7.486740 -0.312578 -1.348967 -4.877898 -4.740138 -1.244878 -3.974973 4.945737 -1.818682 2.988196 -2.273992 -0.312612 2.973457 0.000000 0.000000 0.000000 6.738197 7.989981 -4.667854 -51.167342 -66.868349 -18.830640 177.150921 -66.905612 179.738071 12.319447 -11.712958 -1.402889 0.027996 1.240331 -0.000000 0.000000 0.000000 0.000000 0.000000 0.000000 0.000000 0.595606 -3.206123 -6.241155 54.948170 61.139131 -17.341825 -177.122153 74.204711 179.620149 -21.720010 30.240448 -6.226847 0.024386 -1.236593 -0.000000 0.000000 0.000000 0.000000 0.000000 0.000000 0.000000 
-0.144737 17.258647 -0.702066 176.795858 -86.167884 -163.799125 -11.165974 1.990627 2.226411 -5.750942 15.529310 -18.163495 -3.033087 -1.771592 0.123524 0.381635 1.139038 -6.444281 -179.987600 -0.000001 -96.175000 8.948188 -2.228676 3.474729 7.737590 -2.317406 -18.783905 2.433142 0.910882 8.546275 -1.283365 -6.265675 -3.088889 -1.159799 0.000000 -61.999300 0.844098 -1.110697 -7.452727 -0.311763 -1.361211 -4.876273 -4.737788 -1.256602 -3.994882 4.904876 -1.901502 2.860213 -2.276698 -0.311229 2.939432 0.000000 0.000000 0.000000 6.694311 7.876775 -4.594992 -50.987989 -66.388225 -18.916060 177.221001 -67.471167 179.738815 12.316557 -11.732623 -1.404481 0.027561 1.237576 -0.000000 0.000000 0.000000 0.000000 0.000000 0.000000 0.000000 0.598157 -3.152793 -6.167438 55.100304 61.066915 -17.096932 -177.250716 75.268407 179.623492 -21.405371 29.788408 -6.037240 0.016185 -1.223682 -0.000000 0.000000 0.000000 0.000000 0.000000 0.000000 0.000000 
-0.137016 17.257016 -0.721422 176.662378 -86.082041 -163.647896 -11.175137 1.973610 2.171384 -5.722535 15.696325 -18.185695 -3.043305 -1.762997 0.082696 0.366351 1.053957 -6.331417 -179.982400 0.000000 -96.155400 8.931492 -2.209730 3.502115 7.757077 -2.007061 -18.892522 2.404488 0.888701 8.817929 -1.331838 -6.448911 -3.263571 -1.160800 -0.000001 -61.817100 0.829725 -1.131091 -7.408636 -0.310961 -1.377457 -4.872974 -4.734335 -1.272420 -4.015351 4.863562 -1.991251 2.723460 -2.279372 -0.309732 2.902997 0.000000 0.000000 0.000000 6.663713 7.744056 -4.516867 -50.842150 -65.844112 -18.975498 177.297260 -68.095659 179.739660 12.317383 -11.741031 -1.405174 0.027001 1.234081 -0.000000 0.000000 0.000000 0.000000 0.000000 0.000000 0.000000 0.601131 -3.097057 -6.083998 55.323030 60.970728 -16.773492 -177.389577 76.393937 179.627069 -21.084185 29.332831 -5.848131 0.007869 -1.210573 -0.000000 0.000000 0.000000 0.000000 0.000000 0.000000 0.000000 
-0.128629 17.255297 -0.741185 176.452334 -86.007063 -163.420535 -11.183736 1.953970 2.114440 -5.694883 15.854148 -18.213654 -3.054766 -1.753847 0.061642 0.350403 0.950811 -6.251325 -179.979700 -0.000000 -96.195900 8.914431 -2.188246 3.525723 7.772919 -1.696245 -19.000743 2.374005 0.865607 9.098509 -1.383289 -6.644181 -3.443802 -1.161700 -0.000000 -61.630401 0.811701 -1.156683 -7.356377 -0.309808 -1.397999 -4.868289 -4.728914 -1.292687 -4.035840 4.819935 -2.086497 2.578232 -2.281212 -0.308077 2.864245 0.000000 0.000000 0.000000 6.644188 7.593890 -4.433235 -50.733705 -65.233946 -19.003802 177.379791 -68.784212 179.740605 12.325260 -11.729461 -1.404365 0.026234 1.229568 -0.000000 0.000000 0.000000 0.000000 0.000000 0.000000 0.000000 0.599069 -3.037780 -5.991319 55.624821 60.845215 -16.364606 -177.538472 77.581532 179.630788 -20.765928 28.884603 -5.664619 -0.000411 -1.197404 -0.000000 0.000000 0.000000 0.000000 0.000000 0.000000 0.000000 
-0.119733 17.253503 -0.761387 176.167385 -85.941783 -163.118144 -11.191593 1.932451 2.058636 -5.666639 15.991710 -18.243094 -3.065561 -1.744884 0.056758 0.336607 0.851562 -6.207591 -179.979000 0.000001 -96.249200 8.897148 -2.164733 3.545469 7.786171 -1.390817 -19.111488 2.342574 0.841621 9.388036 -1.436271 -6.844208 -3.628367 -1.161300 -0.000001 -61.444601 0.790060 -1.187811 -7.299507 -0.308098 -1.423317 -4.862653 -4.720902 -1.317964 -4.055210 4.773441 -2.186887 2.424868 -2.282026 -0.306252 2.823270 0.000000 0.000000 0.000000 6.633114 7.428388 -4.344238 -50.665327 -64.557240 -18.996501 177.469120 -69.544689 179.741664 12.340411 -11.697207 -1.402053 0.025279 1.223944 -0.000000 0.000000 0.000000 0.000000 0.000000 0.000000 0.000000 0.591892 -2.976194 -5.890031 56.011901 60.691319 -15.863956 -177.697460 78.830440 179.634468 -20.466628 28.480774 -5.498306 -0.008468 -1.184565 -0.000000 0.000000 0.000000 0.000000 0.000000 0.000000 0.000000 
-0.110583 17.251623 -0.782041 175.817648 -85.883738 -162.749069 -11.198867 1.909935 2.005558 -5.636756 16.106421 -18.272075 -3.074654 -1.736343 0.063905 0.326245 0.769608 -6.193299 -179.979600 -0.000001 -96.308500 8.879706 -2.139932 3.562254 7.797834 -1.092626 -19.227157 2.310818 0.816825 9.686487 -1.489819 -7.044026 -3.816852 -1.159200 -0.000001 -61.260500 0.765331 -1.224048 -7.241218 -0.305726 -1.453173 -4.856436 -4.710249 -1.348079 -4.072116 4.724496 -2.291473 2.263685 -2.281673 -0.304246 2.780157 0.000000 0.000000 0.000000 6.627049 7.251030 -4.249794 -50.638395 -63.817213 -18.948845 177.565819 -70.383820 179.742899 12.361101 -11.639140 -1.397341 0.024181 1.217033 -0.000000 0.000000 0.000000 0.000000 0.000000 0.000000 0.000000 0.580205 -2.912087 -5.780608 56.487580 60.509185 -15.267278 -177.866983 80.145075 179.638085 -20.188495 28.133772 -5.351288 -0.016256 -1.172121 -0.000000 0.000000 0.000000 0.000000 0.000000 0.000000 0.000000 
-0.101221 17.249674 -0.803184 175.432630 -85.829469 -162.343257 -11.205611 1.886962 1.956653 -5.601817 16.193369 -18.295749 -3.080620 -1.728379 0.075683 0.320286 0.716642 -6.198777 -179.980900 0.000000 -96.383199 8.862123 -2.114150 3.576860 7.809637 -0.799771 -19.349045 2.279039 0.791104 9.994589 -1.543531 -7.241612 -4.009023 -1.155100 -0.000000 -61.072500 0.739204 -1.264127 -7.184046 -0.302530 -1.486583 -4.850031 -4.697567 -1.382093 -4.085786 4.674116 -2.397174 2.095349 -2.279451 -0.302029 2.735107 0.000000 0.000000 0.000000 6.620184 7.066774 -4.148985 -50.650711 -63.021700 -18.856207 177.670558 -71.311382 179.744452 12.385418 -11.533018 -1.387528 0.022961 1.208283 -0.000000 0.000000 0.000000 0.000000 0.000000 0.000000 0.000000 0.560531 -2.840903 -5.663939 57.050967 60.291728 -14.575044 -178.046060 81.525216 179.641868 -19.915312 27.794118 -5.209168 -0.023811 -1.159510 -0.000000 0.000000 0.000000 0.000000 0.000000 0.000000 0.000000 
